<svg xmlns="http://www.w3.org/2000/svg" version="1.1" xmlns:xlink="http://www.w3.org/1999/xlink" xmlns:svgjs="http://svgjs.com/svgjs" width="1440" height="560" preserveAspectRatio="none" viewBox="0 0 1440 560"><g mask="url(&quot;#SvgjsMask1186&quot;)" fill="none"><rect width="1440" height="560" x="0" y="0" fill="rgba(255, 255, 255, 1)"></rect><path d="M1512 560L0 560 L0 337.64Q11.71 277.35, 72 289.06Q139.91 236.97, 192 304.87Q240.34 281.21, 264 329.55Q340.41 285.96, 384 362.36Q413.93 320.29, 456 350.22Q461.16 283.38, 528 288.55Q596.72 237.27, 648 306Q743.81 281.81, 768 377.63Q778.4 316.03, 840 326.43Q864.31 278.74, 912 303.04Q967.42 286.47, 984 341.89Q1054.49 292.38, 1104 362.86Q1120.13 306.99, 1176 323.12Q1222.22 297.35, 1248 343.57Q1290.29 265.86, 1368 308.15Q1411.19 279.35, 1440 322.54Q1460.36 270.89, 1512 291.25z" fill="rgba(221, 221, 221, 0.8)"></path><path d="M1464 560L0 560 L0 404.92Q65.16 350.08, 120 415.24Q185.4 360.64, 240 426.05Q257.7 371.75, 312 389.46Q340.7 346.16, 384 374.86Q434.45 305.31, 504 355.76Q560.35 340.11, 576 396.46Q630.9 331.36, 696 386.26Q742.88 313.14, 816 360.02Q883.89 307.91, 936 375.81Q1015.89 335.7, 1056 415.59Q1105.65 393.25, 1128 442.9Q1141.78 384.68, 1200 398.46Q1228.34 354.8, 1272 383.14Q1326.47 365.61, 1344 420.07Q1411.52 367.59, 1464 435.1z" fill="rgba(238, 238, 238, 0.8)"></path><path d="M1488 560L0 560 L0 511.12Q51.66 442.78, 120 494.45Q120.88 423.32, 192 424.2Q248.83 409.03, 264 465.87Q285.09 414.96, 336 436.05Q403.19 383.25, 456 450.44Q501.16 375.6, 576 420.76Q620.5 393.25, 648 437.75Q721.24 438.99, 720 512.22Q711.84 432.06, 792 423.9Q856.36 368.26, 912 432.62Q955.99 404.61, 984 448.6Q1075.63 420.23, 1104 511.86Q1134.5 470.36, 1176 500.86Q1218.46 423.32, 1296 465.78Q1310.58 408.36, 1368 422.93Q1440.21 375.14, 1488 447.35z" fill="rgba(221, 221, 221, 0.8)"></path><path d="M1488 560L0 560 L0 554.47Q34.67 469.14, 120 503.82Q169.44 481.26, 192 530.7Q257.62 476.32, 312 541.94Q348.62 458.56, 432 495.18Q523.69 466.88, 552 558.57Q596.32 530.89, 624 575.22Q644.42 475.64, 744 496.06Q815.91 447.98, 864 519.89Q930.61 514.5, 936 581.1Q989.16 514.26, 1056 567.42Q1080.28 519.7, 1128 543.98Q1177.12 473.1, 1248 522.22Q1337.13 491.36, 1368 580.49Q1383.2 475.69, 1488 490.9z" fill="rgba(204, 204, 204, 0.8)"></path></g><defs><mask id="SvgjsMask1186"><rect width="1440" height="560" fill="#ffffff"></rect></mask></defs></svg>