<?xml version="1.0" standalone="no"?>
	<svg xmlns="http://www.w3.org/2000/svg" viewBox="0 0 1440 320">
		<path fill="#0a214c" fill-opacity="0.1" d="M0,32L40,64C80,96,160,160,240,197.3C320,235,400,245,480,229.3C560,213,640,171,720,149.3C800,128,880,128,960,133.3C1040,139,1120,149,1200,165.3C1280,181,1360,203,1400,213.3L1440,224L1440,320L1400,320C1360,320,1280,320,1200,320C1120,320,1040,320,960,320C880,320,800,320,720,320C640,320,560,320,480,320C400,320,320,320,240,320C160,320,80,320,40,320L0,320Z"></path>
	</svg>